<svg width="120" height="47" viewBox="0 0 120 47" fill="none" xmlns="http://www.w3.org/2000/svg">
<g filter="url(#filter0_i)">
<rect width="120" height="47" rx="4.73223" fill="#191A1F"/>
<rect width="120" height="47" rx="4.73223" fill="#144213"/>
</g>
<rect x="0.788705" y="0.788705" width="118.423" height="45.4226" rx="3.94352" stroke="#434343" stroke-opacity="0.55" stroke-width="1.57741"/>
<path d="M35.1022 21.064H35.0849L33.61 25.6448H36.5424L35.1022 21.064ZM37.9652 30L37.2364 27.6228H32.9853L32.1698 30H29.6191L33.7314 18.4786H36.525L40.5853 30H37.9652ZM48.282 30L43.3542 22.2612V30H41.1159V18.4786H43.6665L48.2473 25.8877V18.4786H50.503V30H48.282ZM55.7054 28.0393C56.758 28.0393 57.5215 27.7154 57.9958 27.0676C58.47 26.4082 58.7072 25.425 58.7072 24.1178C58.7072 23.47 58.6493 22.9148 58.5337 22.4521C58.418 21.9894 58.2271 21.6134 57.9611 21.3242C57.7066 21.0235 57.3769 20.8095 56.972 20.6822C56.5672 20.5434 56.0755 20.474 55.4971 20.474H53.7099V28.0393H55.7054ZM51.3675 30V18.4786H55.8268C56.6019 18.4786 57.3191 18.6116 57.9784 18.8777C58.6378 19.1322 59.1988 19.5023 59.6615 19.9882C60.1358 20.474 60.506 21.064 60.772 21.758C61.0381 22.4521 61.1711 23.2387 61.1711 24.1178C61.1711 24.997 61.0496 25.8009 60.8067 26.5297C60.5754 27.2469 60.2399 27.8658 59.8003 28.3863C59.3608 28.8953 58.8344 29.2944 58.2213 29.5836C57.6082 29.8612 56.9315 30 56.1912 30H51.3675ZM61.9072 30V18.4786H70.3747V20.4914H64.2496V22.9553H69.8889V24.9854H64.2496V27.9525H70.6523V30H61.9072ZM73.4846 20.474V23.5452H76.5037C77.1515 23.5452 77.6084 23.4006 77.8745 23.1115C78.1406 22.8223 78.2736 22.4579 78.2736 22.0183C78.2736 21.5672 78.1406 21.197 77.8745 20.9078C77.62 20.6186 77.192 20.474 76.5905 20.474H73.4846ZM77.8571 30V27.0329C77.8571 26.4776 77.7299 26.0843 77.4754 25.853C77.2209 25.6101 76.7466 25.4886 76.0526 25.4886H73.4846V30H71.1421V18.4786H76.9896C77.5217 18.4786 78.0017 18.5654 78.4297 18.7389C78.8693 18.9008 79.2453 19.1322 79.5576 19.4329C79.8699 19.7221 80.1071 20.0749 80.269 20.4914C80.4425 20.8962 80.5293 21.3358 80.5293 21.8101C80.5293 22.4347 80.3789 22.99 80.0781 23.4758C79.7889 23.9501 79.3667 24.2856 78.8115 24.4822C79.3205 24.6442 79.6791 24.8929 79.8873 25.2283C80.1071 25.5638 80.217 26.067 80.217 26.7379V30H77.8571ZM87.579 21.8795C87.5212 21.2895 87.3072 20.85 86.937 20.5608C86.5668 20.2716 86.0174 20.127 85.2886 20.127C84.6061 20.127 84.0914 20.2427 83.7443 20.474C83.3973 20.7054 83.2238 21.0408 83.2238 21.4804C83.2238 21.8506 83.3568 22.1455 83.6229 22.3653C83.9005 22.5851 84.3632 22.776 85.011 22.9379C85.6703 23.0999 86.295 23.2618 86.8849 23.4238C87.4865 23.5742 88.0012 23.7477 88.4292 23.9443C88.6837 24.06 88.9209 24.193 89.1406 24.3434C89.3604 24.4938 89.5513 24.6789 89.7132 24.8987C89.8752 25.1184 90.0024 25.3787 90.095 25.6795C90.1875 25.9802 90.2338 26.333 90.2338 26.7379C90.2338 27.3741 90.1181 27.9236 89.8868 28.3863C89.667 28.8374 89.3489 29.2134 88.9324 29.5142C88.5276 29.8149 88.0417 30.0347 87.4749 30.1735C86.9196 30.3239 86.3066 30.3991 85.6356 30.3991C84.9184 30.3991 84.2649 30.3181 83.6749 30.1562C83.085 30.0058 82.576 29.7686 82.148 29.4448C81.72 29.1209 81.3845 28.7218 81.1416 28.2475C80.8987 27.7617 80.7714 27.1948 80.7599 26.547H83.085C83.1081 27.137 83.3452 27.6055 83.7964 27.9525C84.2591 28.288 84.878 28.4557 85.653 28.4557C86.3702 28.4557 86.9196 28.3169 87.3014 28.0393C87.6947 27.7501 87.8913 27.3452 87.8913 26.8247C87.8913 26.6512 87.8624 26.495 87.8046 26.3562C87.7583 26.2174 87.6658 26.0901 87.527 25.9744C87.3997 25.8472 87.2204 25.7373 86.9891 25.6448C86.7577 25.5407 86.4627 25.4481 86.1041 25.3671C85.3869 25.2052 84.7796 25.0664 84.2822 24.9507C83.7964 24.8235 83.351 24.6673 82.9462 24.4822C82.3215 24.2046 81.8414 23.846 81.506 23.4064C81.1821 22.9553 81.0201 22.3653 81.0201 21.6366C81.0201 21.116 81.1069 20.6418 81.2804 20.2137C81.4539 19.7742 81.7142 19.3982 82.0612 19.0859C82.4198 18.7736 82.8594 18.5307 83.3799 18.3571C83.9121 18.1836 84.5309 18.0969 85.2366 18.0969C85.9653 18.0969 86.6131 18.1894 87.1799 18.3745C87.7467 18.5596 88.221 18.8198 88.6027 19.1553C88.996 19.4908 89.2968 19.8899 89.505 20.3526C89.7248 20.8153 89.8463 21.3242 89.8694 21.8795H87.579Z" fill="white"/>
<defs>
<filter id="filter0_i" x="0" y="0" width="120" height="47.7887" filterUnits="userSpaceOnUse" color-interpolation-filters="sRGB">
<feFlood flood-opacity="0" result="BackgroundImageFix"/>
<feBlend mode="normal" in="SourceGraphic" in2="BackgroundImageFix" result="shape"/>
<feColorMatrix in="SourceAlpha" type="matrix" values="0 0 0 0 0 0 0 0 0 0 0 0 0 0 0 0 0 0 127 0" result="hardAlpha"/>
<feOffset dy="2.36611"/>
<feGaussianBlur stdDeviation="0.394352"/>
<feComposite in2="hardAlpha" operator="arithmetic" k2="-1" k3="1"/>
<feColorMatrix type="matrix" values="0 0 0 0 1 0 0 0 0 1 0 0 0 0 1 0 0 0 0.15 0"/>
<feBlend mode="normal" in2="shape" result="effect1_innerShadow"/>
</filter>
</defs>
</svg>
