<svg width="120" height="47" viewBox="0 0 120 47" fill="none" xmlns="http://www.w3.org/2000/svg">
<g filter="url(#filter0_i)">
<rect width="120" height="47" rx="4.73223" fill="#191A1F"/>
<rect width="120" height="47" rx="4.73223" fill="#B7B7B7"/>
</g>
<rect x="0.788705" y="0.788705" width="118.423" height="45.4226" rx="3.94352" stroke="#434343" stroke-opacity="0.55" stroke-width="1.57741"/>
<path d="M30.1686 28.0393C30.7239 28.0393 31.1576 27.8831 31.47 27.5708C31.7823 27.2585 31.9385 26.8652 31.9385 26.3909C31.9385 25.8819 31.7823 25.5117 31.47 25.2804C31.1692 25.049 30.747 24.9334 30.2033 24.9334H27.1147V28.0393H30.1686ZM27.1147 20.474V22.9726H30.1513C31.1229 22.9726 31.6088 22.5562 31.6088 21.7233C31.6088 21.2838 31.4815 20.9656 31.2271 20.769C30.9841 20.5723 30.5793 20.474 30.0124 20.474H27.1147ZM24.7896 30V18.4786H30.4636C31.5972 18.4786 32.459 18.762 33.049 19.3288C33.6389 19.8841 33.9339 20.6475 33.9339 21.6192C33.9339 22.1166 33.8009 22.562 33.5348 22.9553C33.2687 23.337 32.9333 23.6089 32.5284 23.7708C32.7713 23.8633 32.9969 23.9848 33.2051 24.1352C33.4249 24.274 33.61 24.4591 33.7604 24.6904C33.9223 24.9102 34.0496 25.1763 34.1421 25.4886C34.2347 25.7894 34.2809 26.148 34.2809 26.5644C34.2809 27.6171 33.9281 28.4557 33.2225 29.0804C32.5169 29.6935 31.4353 30 29.9777 30H24.7896ZM34.7532 30V18.4786H43.2207V20.4914H37.0957V22.9553H42.7349V24.9854H37.0957V27.9525H43.4984V30H34.7532ZM47.5452 30L43.6411 18.4786H46.2091L48.7251 26.5644L51.2237 18.4786H53.7223L49.8182 30H47.5452ZM54.2737 30V18.4786H62.7412V20.4914H56.6161V22.9553H62.2553V24.9854H56.6161V27.9525H63.0188V30H54.2737ZM70.0328 21.8795C69.9749 21.2895 69.7609 20.85 69.3908 20.5608C69.0206 20.2716 68.4711 20.127 67.7424 20.127C67.0599 20.127 66.5451 20.2427 66.1981 20.474C65.851 20.7054 65.6775 21.0408 65.6775 21.4804C65.6775 21.8506 65.8106 22.1455 66.0766 22.3653C66.3542 22.5851 66.8169 22.776 67.4647 22.9379C68.1241 23.0999 68.7487 23.2618 69.3387 23.4238C69.9402 23.5742 70.455 23.7477 70.883 23.9443C71.1375 24.06 71.3746 24.193 71.5944 24.3434C71.8142 24.4938 72.005 24.6789 72.167 24.8987C72.3289 25.1184 72.4562 25.3787 72.5487 25.6795C72.6413 25.9802 72.6875 26.333 72.6875 26.7379C72.6875 27.3741 72.5719 27.9236 72.3405 28.3863C72.1207 28.8374 71.8026 29.2134 71.3862 29.5142C70.9813 29.8149 70.4955 30.0347 69.9286 30.1735C69.3734 30.3239 68.7603 30.3991 68.0894 30.3991C67.3722 30.3991 66.7186 30.3181 66.1287 30.1562C65.5387 30.0058 65.0297 29.7686 64.6017 29.4448C64.1737 29.1209 63.8383 28.7218 63.5953 28.2475C63.3524 27.7617 63.2252 27.1948 63.2136 26.547H65.5387C65.5619 27.137 65.799 27.6055 66.2501 27.9525C66.7128 28.288 67.3317 28.4557 68.1067 28.4557C68.8239 28.4557 69.3734 28.3169 69.7551 28.0393C70.1484 27.7501 70.3451 27.3452 70.3451 26.8247C70.3451 26.6512 70.3162 26.495 70.2583 26.3562C70.2121 26.2174 70.1195 26.0901 69.9807 25.9744C69.8535 25.8472 69.6742 25.7373 69.4428 25.6448C69.2115 25.5407 68.9165 25.4481 68.5579 25.3671C67.8407 25.2052 67.2334 25.0664 66.736 24.9507C66.2501 24.8235 65.8048 24.6673 65.3999 24.4822C64.7752 24.2046 64.2952 23.846 63.9597 23.4064C63.6358 22.9553 63.4739 22.3653 63.4739 21.6366C63.4739 21.116 63.5606 20.6418 63.7342 20.2137C63.9077 19.7742 64.1679 19.3982 64.515 19.0859C64.8736 18.7736 65.3131 18.5307 65.8337 18.3571C66.3658 18.1836 66.9847 18.0969 67.6903 18.0969C68.4191 18.0969 69.0669 18.1894 69.6337 18.3745C70.2005 18.5596 70.6748 18.8198 71.0565 19.1553C71.4498 19.4908 71.7506 19.8899 71.9588 20.3526C72.1786 20.8153 72.3 21.3242 72.3232 21.8795H70.0328ZM75.8841 30V20.4914H72.4138V18.4786H81.7837V20.4914H78.296V30H75.8841ZM82.3512 30V18.4786H84.7631V30H82.3512ZM94.1767 30L94.1246 28.8548C93.847 29.3406 93.4017 29.7224 92.7886 30C92.1755 30.2661 91.4699 30.3991 90.6717 30.3991C89.8735 30.3991 89.1505 30.2314 88.5028 29.8959C87.8665 29.5489 87.3171 29.0919 86.8544 28.5251C86.4032 27.9467 86.0562 27.2874 85.8133 26.547C85.5704 25.7952 85.4489 25.0201 85.4489 24.2219C85.4489 23.3775 85.5704 22.5851 85.8133 21.8448C86.0562 21.0929 86.4148 20.4393 86.8891 19.8841C87.3633 19.3288 87.9533 18.895 88.6589 18.5827C89.3646 18.2588 90.1859 18.0969 91.1228 18.0969C91.8053 18.0969 92.4416 18.1952 93.0315 18.3918C93.633 18.5885 94.1536 18.8603 94.5931 19.2074C95.0443 19.5544 95.4029 19.9708 95.6689 20.4567C95.9466 20.9309 96.1085 21.4573 96.1548 22.0357H93.7256C93.6909 21.7696 93.5983 21.5209 93.4479 21.2895C93.2976 21.0466 93.1067 20.8384 92.8753 20.6649C92.644 20.4914 92.3721 20.3526 92.0598 20.2485C91.7591 20.1443 91.4467 20.0923 91.1228 20.0923C90.1512 20.0923 89.3703 20.4567 88.7804 21.1854C88.202 21.9026 87.9128 22.9495 87.9128 24.3261C87.9128 24.8003 87.9706 25.2804 88.0863 25.7662C88.2136 26.2405 88.4044 26.6743 88.6589 27.0676C88.925 27.4493 89.2604 27.7617 89.6653 28.0046C90.0702 28.2475 90.5502 28.369 91.1055 28.369C91.4988 28.369 91.8632 28.2996 92.1986 28.1607C92.5457 28.0219 92.8464 27.8311 93.1009 27.5881C93.3554 27.3452 93.552 27.0676 93.6909 26.7553C93.8412 26.4314 93.9164 26.0901 93.9164 25.7315H91.3658V23.8055H96.1721V30H94.1767Z" fill="#1F2025"/>
<defs>
<filter id="filter0_i" x="0" y="0" width="120" height="47.7887" filterUnits="userSpaceOnUse" color-interpolation-filters="sRGB">
<feFlood flood-opacity="0" result="BackgroundImageFix"/>
<feBlend mode="normal" in="SourceGraphic" in2="BackgroundImageFix" result="shape"/>
<feColorMatrix in="SourceAlpha" type="matrix" values="0 0 0 0 0 0 0 0 0 0 0 0 0 0 0 0 0 0 127 0" result="hardAlpha"/>
<feOffset dy="2.36611"/>
<feGaussianBlur stdDeviation="0.394352"/>
<feComposite in2="hardAlpha" operator="arithmetic" k2="-1" k3="1"/>
<feColorMatrix type="matrix" values="0 0 0 0 1 0 0 0 0 1 0 0 0 0 1 0 0 0 0.15 0"/>
<feBlend mode="normal" in2="shape" result="effect1_innerShadow"/>
</filter>
</defs>
</svg>
