<svg width="120" height="47" viewBox="0 0 120 47" fill="none" xmlns="http://www.w3.org/2000/svg">
<g filter="url(#filter0_i)">
<rect width="120" height="47" rx="4.73223" fill="#191A1F"/>
<rect width="120" height="47" rx="4.73223" fill="#112069"/>
</g>
<rect x="0.788705" y="0.788705" width="118.423" height="45.4226" rx="3.94352" stroke="#434343" stroke-opacity="0.55" stroke-width="1.57741"/>
<path d="M19.5392 30L17.752 22.5041L15.9301 30H13.6744L10.4123 18.4786H12.9803L14.8716 25.9397L16.468 18.4786H19.0013L20.7538 25.9397L22.6278 18.4786H25.0917L21.8643 30H19.5392ZM25.6199 30V18.4786H34.0875V20.4914H27.9624V22.9553H33.6016V24.9854H27.9624V27.9525H34.3651V30H25.6199ZM37.1973 20.474V23.5452H40.2165C40.8643 23.5452 41.3212 23.4006 41.5873 23.1115C41.8533 22.8223 41.9863 22.4579 41.9863 22.0183C41.9863 21.5672 41.8533 21.197 41.5873 20.9078C41.3328 20.6186 40.9048 20.474 40.3032 20.474H37.1973ZM41.5699 30V27.0329C41.5699 26.4776 41.4427 26.0843 41.1882 25.853C40.9337 25.6101 40.4594 25.4886 39.7654 25.4886H37.1973V30H34.8549V18.4786H40.7023C41.2344 18.4786 41.7145 18.5654 42.1425 18.7389C42.5821 18.9008 42.958 19.1322 43.2704 19.4329C43.5827 19.7221 43.8198 20.0749 43.9818 20.4914C44.1553 20.8962 44.242 21.3358 44.242 21.8101C44.242 22.4347 44.0917 22.99 43.7909 23.4758C43.5017 23.9501 43.0795 24.2856 42.5242 24.4822C43.0332 24.6442 43.3918 24.8929 43.6 25.2283C43.8198 25.5638 43.9297 26.067 43.9297 26.7379V30H41.5699ZM51.9656 30L48.5474 24.8119L47.2634 26.0786V30H44.8862V18.4786H47.2634V23.1635L51.6707 18.4786H54.7939L50.2478 23.0247L54.898 30H51.9656ZM59.37 25.5407V23.7882H63.6732V25.5407H59.37ZM64.4067 28.3343V26.5297L70.74 24.0484L64.4067 21.5672V19.7626L72.5792 23.2329V24.864L64.4067 28.3343ZM84.5804 30V24.8293H80.0863V30H77.6745V18.4786H80.0863V22.8165H84.5804V18.4786H87.0096V30H84.5804ZM94.6775 18.4786H97.1414V26.1653C97.1414 27.565 96.7307 28.6234 95.9094 29.3406C95.0881 30.0463 93.9198 30.3991 92.4044 30.3991C91.0047 30.3991 89.8942 30.0636 89.0729 29.3927C88.2632 28.7218 87.8583 27.6922 87.8583 26.3041V18.4786H90.3049V26.0786C90.3049 26.7958 90.4842 27.3626 90.8428 27.779C91.2014 28.1954 91.7103 28.4037 92.3697 28.4037C93.9082 28.4037 94.6775 27.6575 94.6775 26.1653V18.4786ZM98.0252 30V18.4786H100.437V30H98.0252ZM107.786 21.8795C107.728 21.2895 107.514 20.85 107.144 20.5608C106.774 20.2716 106.224 20.127 105.495 20.127C104.813 20.127 104.298 20.2427 103.951 20.474C103.604 20.7054 103.431 21.0408 103.431 21.4804C103.431 21.8506 103.564 22.1455 103.83 22.3653C104.107 22.5851 104.57 22.776 105.218 22.9379C105.877 23.0999 106.502 23.2618 107.092 23.4238C107.693 23.5742 108.208 23.7477 108.636 23.9443C108.891 24.06 109.128 24.193 109.347 24.3434C109.567 24.4938 109.758 24.6789 109.92 24.8987C110.082 25.1184 110.209 25.3787 110.302 25.6795C110.394 25.9802 110.441 26.333 110.441 26.7379C110.441 27.3741 110.325 27.9236 110.094 28.3863C109.874 28.8374 109.556 29.2134 109.139 29.5142C108.734 29.8149 108.249 30.0347 107.682 30.1735C107.126 30.3239 106.513 30.3991 105.842 30.3991C105.125 30.3991 104.472 30.3181 103.882 30.1562C103.292 30.0058 102.783 29.7686 102.355 29.4448C101.927 29.1209 101.591 28.7218 101.348 28.2475C101.106 27.7617 100.978 27.1948 100.967 26.547H103.292C103.315 27.137 103.552 27.6055 104.003 27.9525C104.466 28.288 105.085 28.4557 105.86 28.4557C106.577 28.4557 107.126 28.3169 107.508 28.0393C107.902 27.7501 108.098 27.3452 108.098 26.8247C108.098 26.6512 108.069 26.495 108.011 26.3562C107.965 26.2174 107.873 26.0901 107.734 25.9744C107.607 25.8472 107.427 25.7373 107.196 25.6448C106.965 25.5407 106.67 25.4481 106.311 25.3671C105.594 25.2052 104.986 25.0664 104.489 24.9507C104.003 24.8235 103.558 24.6673 103.153 24.4822C102.528 24.2046 102.048 23.846 101.713 23.4064C101.389 22.9553 101.227 22.3653 101.227 21.6366C101.227 21.116 101.314 20.6418 101.487 20.2137C101.661 19.7742 101.921 19.3982 102.268 19.0859C102.627 18.7736 103.066 18.5307 103.587 18.3571C104.119 18.1836 104.738 18.0969 105.443 18.0969C106.172 18.0969 106.82 18.1894 107.387 18.3745C107.954 18.5596 108.428 18.8198 108.81 19.1553C109.203 19.4908 109.504 19.8899 109.712 20.3526C109.932 20.8153 110.053 21.3242 110.076 21.8795H107.786Z" fill="white"/>
<defs>
<filter id="filter0_i" x="0" y="0" width="120" height="47.7887" filterUnits="userSpaceOnUse" color-interpolation-filters="sRGB">
<feFlood flood-opacity="0" result="BackgroundImageFix"/>
<feBlend mode="normal" in="SourceGraphic" in2="BackgroundImageFix" result="shape"/>
<feColorMatrix in="SourceAlpha" type="matrix" values="0 0 0 0 0 0 0 0 0 0 0 0 0 0 0 0 0 0 127 0" result="hardAlpha"/>
<feOffset dy="2.36611"/>
<feGaussianBlur stdDeviation="0.394352"/>
<feComposite in2="hardAlpha" operator="arithmetic" k2="-1" k3="1"/>
<feColorMatrix type="matrix" values="0 0 0 0 1 0 0 0 0 1 0 0 0 0 1 0 0 0 0.15 0"/>
<feBlend mode="normal" in2="shape" result="effect1_innerShadow"/>
</filter>
</defs>
</svg>
