<svg width="120" height="47" viewBox="0 0 120 47" fill="none" xmlns="http://www.w3.org/2000/svg">
<g filter="url(#filter0_i)">
<rect width="120" height="47" rx="4.73223" fill="#191A1F"/>
<rect width="120" height="47" rx="4.73223" fill="#926705"/>
</g>
<rect x="0.788705" y="0.788705" width="118.423" height="45.4226" rx="3.94352" stroke="#434343" stroke-opacity="0.55" stroke-width="1.57741"/>
<path d="M17.6652 30V24.8293H13.1712V30H10.7593V18.4786H13.1712V22.8165H17.6652V18.4786H20.0944V30H17.6652ZM27.7623 18.4786H30.2262V26.1653C30.2262 27.565 29.8156 28.6234 28.9943 29.3406C28.173 30.0463 27.0046 30.3991 25.4893 30.3991C24.0896 30.3991 22.9791 30.0636 22.1578 29.3927C21.348 28.7218 20.9432 27.6922 20.9432 26.3041V18.4786H23.3897V26.0786C23.3897 26.7958 23.569 27.3626 23.9276 27.779C24.2862 28.1954 24.7952 28.4037 25.4546 28.4037C26.9931 28.4037 27.7623 27.6575 27.7623 26.1653V18.4786ZM31.1101 30V18.4786H33.5219V30H31.1101ZM40.8707 21.8795C40.8129 21.2895 40.5989 20.85 40.2287 20.5608C39.8585 20.2716 39.3091 20.127 38.5803 20.127C37.8978 20.127 37.383 20.2427 37.036 20.474C36.689 20.7054 36.5155 21.0408 36.5155 21.4804C36.5155 21.8506 36.6485 22.1455 36.9146 22.3653C37.1922 22.5851 37.6549 22.776 38.3027 22.9379C38.962 23.0999 39.5867 23.2618 40.1766 23.4238C40.7782 23.5742 41.2929 23.7477 41.7209 23.9443C41.9754 24.06 42.2125 24.193 42.4323 24.3434C42.6521 24.4938 42.843 24.6789 43.0049 24.8987C43.1669 25.1184 43.2941 25.3787 43.3867 25.6795C43.4792 25.9802 43.5255 26.333 43.5255 26.7379C43.5255 27.3741 43.4098 27.9236 43.1784 28.3863C42.9587 28.8374 42.6406 29.2134 42.2241 29.5142C41.8192 29.8149 41.3334 30.0347 40.7666 30.1735C40.2113 30.3239 39.5983 30.3991 38.9273 30.3991C38.2101 30.3991 37.5566 30.3181 36.9666 30.1562C36.3767 30.0058 35.8677 29.7686 35.4397 29.4448C35.0117 29.1209 34.6762 28.7218 34.4333 28.2475C34.1904 27.7617 34.0631 27.1948 34.0516 26.547H36.3767C36.3998 27.137 36.6369 27.6055 37.0881 27.9525C37.5508 28.288 38.1696 28.4557 38.9447 28.4557C39.6619 28.4557 40.2113 28.3169 40.5931 28.0393C40.9864 27.7501 41.183 27.3452 41.183 26.8247C41.183 26.6512 41.1541 26.495 41.0963 26.3562C41.05 26.2174 40.9575 26.0901 40.8186 25.9744C40.6914 25.8472 40.5121 25.7373 40.2807 25.6448C40.0494 25.5407 39.7544 25.4481 39.3958 25.3671C38.6786 25.2052 38.0713 25.0664 37.5739 24.9507C37.0881 24.8235 36.6427 24.6673 36.2378 24.4822C35.6132 24.2046 35.1331 23.846 34.7977 23.4064C34.4738 22.9553 34.3118 22.3653 34.3118 21.6366C34.3118 21.116 34.3986 20.6418 34.5721 20.2137C34.7456 19.7742 35.0059 19.3982 35.3529 19.0859C35.7115 18.7736 36.1511 18.5307 36.6716 18.3571C37.2037 18.1836 37.8226 18.0969 38.5282 18.0969C39.257 18.0969 39.9048 18.1894 40.4716 18.3745C41.0384 18.5596 41.5127 18.8198 41.8944 19.1553C42.2877 19.4908 42.5885 19.8899 42.7967 20.3526C43.0165 20.8153 43.138 21.3242 43.1611 21.8795H40.8707ZM48.1356 25.5407V23.7882H52.4387V25.5407H48.1356ZM53.1722 28.3343V26.5297L59.5055 24.0484L53.1722 21.5672V19.7626L61.3448 23.2329V24.864L53.1722 28.3343ZM75.2199 30L73.4327 22.5041L71.6108 30H69.3551L66.093 18.4786H68.661L70.5524 25.9397L72.1487 18.4786H74.682L76.4345 25.9397L78.3085 18.4786H80.7724L77.545 30H75.2199ZM81.3007 30V18.4786H89.7682V20.4914H83.6431V22.9553H89.2824V24.9854H83.6431V27.9525H90.0458V30H81.3007ZM92.8781 20.474V23.5452H95.8972C96.545 23.5452 97.0019 23.4006 97.268 23.1115C97.534 22.8223 97.6671 22.4579 97.6671 22.0183C97.6671 21.5672 97.534 21.197 97.268 20.9078C97.0135 20.6186 96.5855 20.474 95.984 20.474H92.8781ZM97.2506 30V27.0329C97.2506 26.4776 97.1234 26.0843 96.8689 25.853C96.6144 25.6101 96.1401 25.4886 95.4461 25.4886H92.8781V30H90.5356V18.4786H96.3831C96.9152 18.4786 97.3952 18.5654 97.8232 18.7389C98.2628 18.9008 98.6388 19.1322 98.9511 19.4329C99.2634 19.7221 99.5005 20.0749 99.6625 20.4914C99.836 20.8962 99.9228 21.3358 99.9228 21.8101C99.9228 22.4347 99.7724 22.99 99.4716 23.4758C99.1824 23.9501 98.7602 24.2856 98.205 24.4822C98.7139 24.6442 99.0725 24.8929 99.2808 25.2283C99.5005 25.5638 99.6104 26.067 99.6104 26.7379V30H97.2506ZM107.646 30L104.228 24.8119L102.944 26.0786V30H100.567V18.4786H102.944V23.1635L107.351 18.4786H110.475L105.929 23.0247L110.579 30H107.646Z" fill="white"/>
<defs>
<filter id="filter0_i" x="0" y="0" width="120" height="47.7887" filterUnits="userSpaceOnUse" color-interpolation-filters="sRGB">
<feFlood flood-opacity="0" result="BackgroundImageFix"/>
<feBlend mode="normal" in="SourceGraphic" in2="BackgroundImageFix" result="shape"/>
<feColorMatrix in="SourceAlpha" type="matrix" values="0 0 0 0 0 0 0 0 0 0 0 0 0 0 0 0 0 0 127 0" result="hardAlpha"/>
<feOffset dy="2.36611"/>
<feGaussianBlur stdDeviation="0.394352"/>
<feComposite in2="hardAlpha" operator="arithmetic" k2="-1" k3="1"/>
<feColorMatrix type="matrix" values="0 0 0 0 1 0 0 0 0 1 0 0 0 0 1 0 0 0 0.15 0"/>
<feBlend mode="normal" in2="shape" result="effect1_innerShadow"/>
</filter>
</defs>
</svg>
