<svg width="261" height="198" viewBox="0 0 261 198" fill="none" xmlns="http://www.w3.org/2000/svg">
<g clip-path="url(#clip0)">
<path fill-rule="evenodd" clip-rule="evenodd" d="M130.771 138.264C132.043 140.93 135.482 145.42 142.446 149.088C149.412 152.761 164.135 150.3 173.175 156.165C182.216 162.026 190.858 181.084 199.218 185.384C207.579 189.683 214.533 188.479 223.337 181.96C232.142 175.438 246.587 154.239 249.717 144.793C252.879 135.255 251.447 128.63 248.087 122.88C244.728 117.129 236.226 112.331 229.55 110.294C222.87 108.256 212.052 109.331 204.782 106.895C197.55 104.473 194.398 94.7474 187.779 90.869C181.425 87.1434 178.568 87.9498 176.426 88.4131C168.996 90.0201 171.951 90.3725 174.835 93.5938C177.805 96.9101 182.294 101.468 179.599 107.476C176.945 113.394 172.825 114.245 163.999 111.718C159.801 114.217 156.937 119.828 154.591 122.576C156.391 124.659 156.06 128.111 153.819 130.81C151.516 133.583 146.835 134.801 143.387 134.272C139.973 133.75 136.346 132.143 134.463 132.053C132.583 131.962 124.557 125.246 130.771 138.264Z" fill="url(#paint0_linear)"/>
<path fill-rule="evenodd" clip-rule="evenodd" d="M161.585 131.043C157.843 135.046 156.985 135.969 165.974 137.023C169.887 138.33 177.732 141.827 181.982 147.442C186.328 153.181 188.248 155.705 191.977 158.503C195.783 161.357 204.94 161.482 207.78 155C210.587 148.593 214.512 140.157 219.404 134.913C224.297 129.672 232.81 125.76 236.694 124.476C240.634 123.172 240.634 120.11 236.928 118.49C233.221 116.87 221.504 114.519 214.277 114.559C207.091 114.596 200.512 111.883 197.902 107.78C195.228 103.576 188.094 96.0604 184.497 94.4014C180.746 92.6757 179.197 92.1405 182.025 94.9966C183.77 96.7595 189.147 102.335 185.432 110.472C181.637 118.782 165.271 127.098 161.585 131.043Z" fill="white"/>
<path d="M44.4588 65.9544C44.0995 66.2913 44.6662 67.4218 45.7222 68.4842C46.7783 69.5466 47.9169 70.1307 48.2782 69.795L49.5949 68.5613C49.88 68.2941 49.5717 67.5274 48.9081 66.6916L50.6158 65.8458L48.2961 63.5593L47.3443 65.2078C46.6466 64.7212 46.0253 64.5012 45.78 64.7312L44.4588 65.9544V65.9544Z" fill="#8C8C8C"/>
<path d="M40.3074 61.3331C39.9733 61.6897 40.319 62.6953 41.0827 63.5889C41.8463 64.4825 42.7309 64.9173 43.065 64.5607L44.2709 63.2787C44.4867 63.05 44.3923 62.5428 44.1134 61.9788L45.9259 61.0785L43.6073 58.79L42.7224 60.3227C42.2074 59.9547 41.7333 59.8197 41.5099 60.057L40.3074 61.3331Z" fill="#8C8C8C"/>
<path d="M35.1948 56.4929C34.8478 56.8342 35.3219 57.9139 36.2616 58.9091C37.1999 59.9035 38.2356 60.4256 38.584 60.0851L39.8668 58.8239C40.1398 58.555 39.8859 57.8301 39.3146 57.0476L41.1881 56.1275L38.8637 53.8356L37.8439 55.6019C37.2391 55.1873 36.6988 55.0088 36.4692 55.2347L35.1948 56.4929V56.4929Z" fill="#8C8C8C"/>
<path d="M29.9115 51.383C29.5512 51.7192 30.1112 52.8459 31.1692 53.9068C32.2259 54.9695 33.369 55.5589 33.7293 55.2226L35.0478 53.9873C35.3233 53.7303 35.0544 53.0072 34.4398 52.2076L36.1894 51.3441L33.8653 49.0525L32.909 50.7089C32.1632 50.1605 31.4945 49.9105 31.236 50.1512L29.9115 51.383V51.383Z" fill="#8C8C8C"/>
<path d="M25.3565 46.3824C24.9973 46.7167 25.5609 47.8376 26.6176 48.9003C27.6744 49.9632 28.8126 50.5471 29.1718 50.2128L30.4961 48.9809C30.7684 48.7272 30.5078 48.0247 29.9088 47.2366L31.3782 46.5045L29.0591 44.2183L28.2444 45.6293C27.5447 45.139 26.9271 44.9211 26.681 45.1506L25.3565 46.3824V46.3824Z" fill="#8C8C8C"/>
<path d="M20.9906 41.3107C20.6515 41.6619 21.0376 42.7012 21.8613 43.6268C22.6836 44.5543 23.6169 45.0094 23.956 44.6583L25.1783 43.391C25.3959 43.166 25.2898 42.6494 24.9843 42.0701L26.6546 41.2446L24.3368 38.9566L23.5221 40.3676C22.9611 39.9626 22.4435 39.805 22.2117 40.0454L20.9906 41.3107V41.3107Z" fill="#8C8C8C"/>
<path d="M44.4634 59.0506C44.3835 58.9753 43.9921 59.2665 43.5891 59.701C43.1861 60.1356 42.9241 60.5488 43.0039 60.6241C43.0837 60.6995 43.4751 60.4083 43.8781 59.9737C44.2811 59.5392 44.5432 59.1259 44.4634 59.0506Z" fill="white"/>
<path d="M49.0683 63.9381C48.9885 63.8628 48.5971 64.154 48.1941 64.5885C47.7911 65.023 47.5291 65.4363 47.6089 65.5116C47.6887 65.5869 48.0801 65.2957 48.4831 64.8612C48.8861 64.4267 49.1481 64.0134 49.0683 63.9381Z" fill="white"/>
<path d="M39.6635 54.2164C39.5837 54.1411 39.1923 54.4323 38.7893 54.8668C38.3863 55.3013 38.1243 55.7146 38.2041 55.7899C38.2839 55.8652 38.6753 55.574 39.0783 55.1395C39.4813 54.705 39.7434 54.2917 39.6635 54.2164Z" fill="white"/>
<path d="M34.8022 49.3456C34.7224 49.2702 34.331 49.5614 33.928 49.996C33.525 50.4305 33.2629 50.8438 33.3428 50.9191C33.4226 50.9944 33.814 50.7032 34.217 50.2687C34.62 49.8341 34.882 49.4209 34.8022 49.3456Z" fill="white"/>
<path d="M30.0464 44.2913C29.9665 44.216 29.5751 44.5072 29.1721 44.9418C28.7691 45.3763 28.5071 45.7896 28.5869 45.8649C28.6667 45.9402 29.0581 45.649 29.4611 45.2145C29.8642 44.7799 30.1262 44.3667 30.0464 44.2913Z" fill="white"/>
<path d="M25.3623 39.1119C25.2825 39.0366 24.8911 39.3278 24.488 39.7623C24.085 40.1968 23.823 40.6101 23.9028 40.6854C23.9826 40.7607 24.374 40.4695 24.7771 40.035C25.1801 39.6005 25.4421 39.1872 25.3623 39.1119Z" fill="white"/>
<path fill-rule="evenodd" clip-rule="evenodd" d="M62.6043 69.763C62.6043 69.763 56.4874 68.2885 53.9972 69.8605C52.1171 68.4562 24.0198 40.0399 22.6561 37.1956C21.2896 34.3496 22.4486 30.4226 24.5308 28.4595C26.6147 26.4936 32.559 25.151 35.55 29.1209C38.5098 33.0462 37.7033 35.2714 38.5591 37.352C39.8566 40.3175 56.5773 44.2707 56.5773 44.2707C56.5773 44.2707 61.0642 45.2748 60.6304 47.4002C60.1965 49.5255 62.2779 55.7939 68.622 59.6161C66.7699 62.824 62.6043 69.763 62.6043 69.763Z" fill="#FBFBFB"/>
<path d="M62.6279 69.9058L68.8162 59.4436L180.813 120.963L173.702 133.279L62.6279 69.9058Z" fill="#FBFBFB"/>
<path d="M70.1981 60.2069L64.0464 70.8621L62.403 69.9132L68.5547 59.2581L70.1981 60.2069Z" fill="black"/>
<path d="M64.2062 62.8923C63.35 62.398 62.4188 62.4077 62.1265 62.914C61.8342 63.4203 62.2913 64.2316 63.1476 64.726L64.7875 65.6728C65.6438 66.1671 66.5749 66.1574 66.8673 65.6511C67.1596 65.1448 66.7024 64.3335 65.8461 63.8391L64.2062 62.8923Z" fill="#ABABAB"/>
<path d="M70.1981 60.2069L64.0464 70.8621L64.7265 71.2547L70.8783 60.5996L70.1981 60.2069Z" fill="#666666"/>
<path d="M70.8217 60.5663L64.6699 71.2214L65.3501 71.6141L71.5018 60.9589L70.8217 60.5663Z" fill="#DDDDDD"/>
<path d="M80.4486 65.8968L74.1987 76.7219L74.6399 76.9766L80.8897 66.1515L80.4486 65.8968Z" fill="#AAAAAA"/>
<path d="M88.6678 70.6417L82.418 81.4668L82.8591 81.7215L89.109 70.8964L88.6678 70.6417Z" fill="#AAAAAA"/>
<path d="M96.4828 74.7765L90.2329 85.6016L90.674 85.8563L96.9239 75.0312L96.4828 74.7765Z" fill="#AAAAAA"/>
<path d="M103.673 78.5525L97.2617 89.6575L97.7029 89.9122L104.114 78.8072L103.673 78.5525Z" fill="#AAAAAA"/>
<path d="M110.587 82.5445L104.176 93.6494L104.617 93.9041L111.028 82.7992L110.587 82.5445Z" fill="#AAAAAA"/>
<path d="M116.863 85.9411L110.355 97.2139L110.796 97.4686L117.304 86.1958L116.863 85.9411Z" fill="#AAAAAA"/>
<path d="M122.7 89.3113L116.192 100.584L116.633 100.839L123.141 89.5659L122.7 89.3113Z" fill="#AAAAAA"/>
<path d="M128.239 92.2855L121.634 103.726L122.075 103.981L128.68 92.5402L128.239 92.2855Z" fill="#AAAAAA"/>
<path d="M133.641 95.1031L126.906 106.768L127.347 107.022L134.082 95.3578L133.641 95.1031Z" fill="#AAAAAA"/>
<path d="M138.456 97.8832L131.722 109.548L132.163 109.802L138.897 98.1379L138.456 97.8832Z" fill="#AAAAAA"/>
<path d="M142.878 100.436L136.144 112.101L136.585 112.356L143.319 100.691L142.878 100.436Z" fill="#AAAAAA"/>
<path d="M147.347 102.645L140.613 114.309L141.054 114.564L147.788 102.899L147.347 102.645Z" fill="#AAAAAA"/>
<path d="M151.427 105.001L144.692 116.665L145.134 116.92L151.868 105.255L151.427 105.001Z" fill="#AAAAAA"/>
<path d="M155.053 107.094L148.319 118.759L148.76 119.013L155.494 107.349L155.053 107.094Z" fill="#AAAAAA"/>
<path d="M158.626 109.156L151.891 120.82L152.332 121.075L159.067 109.411L158.626 109.156Z" fill="#AAAAAA"/>
<path d="M162.075 110.773L155.179 122.717L155.62 122.972L162.516 111.028L162.075 110.773Z" fill="#AAAAAA"/>
<path d="M165.306 112.638L158.41 124.582L158.851 124.837L165.747 112.892L165.306 112.638Z" fill="#AAAAAA"/>
<path d="M168.196 114.306L161.3 126.25L161.741 126.505L168.637 114.561L168.196 114.306Z" fill="#AAAAAA"/>
<path d="M170.973 115.91L164.077 127.854L164.518 128.109L171.414 116.165L170.973 115.91Z" fill="#AAAAAA"/>
<path d="M173.653 117.156L166.628 129.324L167.069 129.579L174.094 117.411L173.653 117.156Z" fill="#AAAAAA"/>
<path d="M176.09 118.563L169.065 130.731L169.506 130.986L176.531 118.817L176.09 118.563Z" fill="#AAAAAA"/>
<path d="M178.447 119.847L171.421 132.015L171.863 132.27L178.888 120.102L178.447 119.847Z" fill="#AAAAAA"/>
<path d="M184.894 123.734L178.336 135.093C177.603 136.363 178.038 137.987 179.308 138.72L181.895 140.214C183.165 140.947 184.789 140.512 185.522 139.242L192.081 127.883C192.814 126.613 192.379 124.989 191.109 124.256L188.521 122.762C187.251 122.029 185.627 122.464 184.894 123.734Z" fill="black"/>
<path d="M182.137 136.691C182.633 136.977 182.801 137.611 182.515 138.107C182.228 138.604 181.597 138.773 181.1 138.486C180.603 138.2 180.432 137.567 180.719 137.071C181.006 136.574 181.64 136.404 182.137 136.691Z" fill="#AAAAAA"/>
<path d="M183.538 134.259C184.035 134.546 184.203 135.179 183.916 135.676C183.629 136.172 182.998 136.341 182.501 136.055C182.005 135.768 181.834 135.135 182.12 134.639C182.407 134.142 183.042 133.972 183.538 134.259Z" fill="#AAAAAA"/>
<path d="M184.881 131.934C185.377 132.22 185.545 132.854 185.259 133.35C184.972 133.847 184.341 134.016 183.844 133.729C183.348 133.443 183.176 132.81 183.463 132.314C183.75 131.817 184.384 131.647 184.881 131.934Z" fill="#AAAAAA"/>
<path d="M186.224 129.609C186.72 129.895 186.888 130.529 186.602 131.025C186.315 131.522 185.683 131.691 185.187 131.404C184.69 131.118 184.519 130.485 184.806 129.989C185.093 129.492 185.727 129.322 186.224 129.609Z" fill="#AAAAAA"/>
<path d="M187.626 127.178C188.123 127.465 188.291 128.098 188.004 128.595C187.717 129.091 187.086 129.261 186.589 128.974C186.093 128.687 185.922 128.055 186.208 127.558C186.495 127.062 187.129 126.892 187.626 127.178Z" fill="#AAAAAA"/>
<path d="M189.03 124.747C189.526 125.034 189.694 125.668 189.408 126.164C189.121 126.661 188.49 126.83 187.993 126.543C187.497 126.256 187.325 125.624 187.612 125.127C187.899 124.631 188.533 124.461 189.03 124.747Z" fill="#AAAAAA"/>
<path d="M193.348 128.615L186.789 139.975C186.056 141.245 186.491 142.868 187.761 143.601L190.349 145.095C191.619 145.829 193.243 145.394 193.976 144.124L200.534 132.764C201.267 131.494 200.832 129.871 199.562 129.137L196.975 127.643C195.705 126.91 194.081 127.345 193.348 128.615Z" fill="black"/>
<path d="M190.59 141.57C191.087 141.857 191.255 142.49 190.968 142.987C190.682 143.483 190.05 143.653 189.554 143.366C189.057 143.079 188.886 142.447 189.173 141.95C189.459 141.454 190.094 141.283 190.59 141.57Z" fill="#AAAAAA"/>
<path d="M191.992 139.139C192.489 139.425 192.657 140.059 192.37 140.555C192.083 141.052 191.452 141.221 190.955 140.934C190.459 140.648 190.288 140.015 190.574 139.519C190.861 139.022 191.496 138.852 191.992 139.139Z" fill="#AAAAAA"/>
<path d="M193.335 136.814C193.831 137.1 193.999 137.734 193.712 138.23C193.426 138.727 192.794 138.896 192.298 138.609C191.801 138.323 191.63 137.69 191.917 137.193C192.203 136.697 192.838 136.527 193.335 136.814Z" fill="#AAAAAA"/>
<path d="M194.677 134.489C195.173 134.775 195.341 135.409 195.055 135.905C194.768 136.402 194.137 136.571 193.64 136.284C193.144 135.998 192.972 135.365 193.259 134.869C193.546 134.372 194.18 134.202 194.677 134.489Z" fill="#AAAAAA"/>
<path d="M196.08 132.058C196.577 132.345 196.745 132.978 196.458 133.475C196.171 133.971 195.54 134.141 195.043 133.854C194.547 133.567 194.376 132.935 194.662 132.438C194.949 131.942 195.584 131.772 196.08 132.058Z" fill="#AAAAAA"/>
<path d="M197.483 129.628C197.98 129.914 198.148 130.548 197.861 131.044C197.575 131.541 196.943 131.71 196.447 131.423C195.95 131.137 195.779 130.504 196.066 130.007C196.352 129.511 196.987 129.341 197.483 129.628Z" fill="#AAAAAA"/>
<path d="M202.226 133.741L195.667 145.1C194.934 146.37 195.369 147.994 196.639 148.727L199.227 150.221C200.497 150.954 202.121 150.519 202.854 149.249L209.412 137.89C210.145 136.62 209.71 134.996 208.44 134.263L205.853 132.769C204.583 132.036 202.959 132.471 202.226 133.741Z" fill="black"/>
<path d="M199.468 146.696C199.964 146.983 200.132 147.616 199.846 148.113C199.559 148.609 198.928 148.778 198.431 148.492C197.935 148.205 197.763 147.572 198.05 147.076C198.337 146.579 198.971 146.409 199.468 146.696Z" fill="#AAAAAA"/>
<path d="M200.871 144.265C201.367 144.552 201.535 145.185 201.249 145.682C200.962 146.178 200.33 146.347 199.834 146.061C199.337 145.774 199.166 145.141 199.453 144.645C199.74 144.148 200.374 143.978 200.871 144.265Z" fill="#AAAAAA"/>
<path d="M202.213 141.94C202.71 142.227 202.878 142.86 202.591 143.357C202.305 143.853 201.673 144.022 201.177 143.736C200.68 143.449 200.509 142.816 200.796 142.32C201.082 141.823 201.717 141.653 202.213 141.94Z" fill="#AAAAAA"/>
<path d="M203.556 139.615C204.052 139.902 204.22 140.535 203.934 141.032C203.647 141.528 203.015 141.697 202.519 141.411C202.022 141.124 201.851 140.491 202.138 139.995C202.425 139.498 203.059 139.328 203.556 139.615Z" fill="#AAAAAA"/>
<path d="M204.959 137.184C205.456 137.471 205.624 138.105 205.337 138.601C205.05 139.098 204.419 139.267 203.922 138.98C203.426 138.693 203.255 138.061 203.541 137.564C203.828 137.068 204.463 136.898 204.959 137.184Z" fill="#AAAAAA"/>
<path d="M206.362 134.754C206.859 135.04 207.027 135.674 206.74 136.17C206.454 136.667 205.822 136.836 205.326 136.549C204.829 136.263 204.658 135.63 204.945 135.134C205.231 134.637 205.866 134.467 206.362 134.754Z" fill="#AAAAAA"/>
<path d="M246.173 129.232C247.195 131.154 241.282 136.526 236.167 138.397C233.004 139.558 229.344 139.566 228.321 137.644C227.298 135.721 229.451 133.176 232.459 131.429C237.17 128.699 245.15 127.309 246.173 129.232Z" fill="#A6A6A6"/>
<path d="M246 129.386C247.023 131.309 240.998 135.861 235.883 137.732C232.717 138.891 230.914 138.878 229.891 136.955C228.868 135.033 229.988 133.987 232.995 132.243C237.708 129.51 244.977 127.463 246 129.386V129.386Z" fill="#6B6A6A"/>
<path d="M231.717 134.951C232.477 135.39 232.735 136.362 232.298 137.12C231.859 137.88 231.708 137.918 230.951 137.481C230.191 137.042 229.931 136.072 230.37 135.312C230.807 134.555 230.957 134.512 231.717 134.951Z" fill="black"/>
<path d="M211.953 129.142C211.113 130.597 211.611 132.437 213.065 133.276C214.523 134.118 216.355 133.627 217.196 132.17C218.037 130.712 217.547 128.873 216.093 128.033C214.638 127.193 212.793 127.688 211.953 129.142Z" fill="black"/>
<path d="M211.294 129.87L211.333 129.729L210.852 129.584L210.837 129.746L210.759 129.724L210.772 129.564L210.799 129.478L211.36 129.642L211.4 129.502L211.473 129.525L211.366 129.889L211.294 129.87ZM211.643 128.989L211.803 128.725L211.868 128.763L211.649 129.122L211.586 129.082C211.574 129.037 211.558 128.971 211.537 128.89C211.518 128.811 211.503 128.757 211.497 128.735C211.487 128.694 211.474 128.664 211.459 128.644C211.445 128.621 211.432 128.606 211.412 128.594C211.382 128.573 211.353 128.571 211.321 128.58C211.288 128.591 211.262 128.61 211.242 128.644C211.227 128.67 211.215 128.697 211.205 128.729C211.198 128.759 211.193 128.794 211.192 128.836L211.117 128.788C211.124 128.751 211.132 128.717 211.143 128.685C211.152 128.656 211.164 128.629 211.177 128.606C211.211 128.547 211.255 128.511 211.306 128.495C211.354 128.477 211.406 128.485 211.455 128.513C211.476 128.529 211.497 128.545 211.51 128.568C211.528 128.589 211.541 128.619 211.556 128.659L211.583 128.757C211.596 128.814 211.616 128.891 211.643 128.989V128.989ZM212.122 127.949C212.157 127.928 212.193 127.918 212.232 127.922C212.267 127.927 212.303 127.944 212.331 127.975C212.377 128.02 212.396 128.073 212.389 128.13C212.378 128.188 212.346 128.245 212.286 128.302C212.264 128.32 212.243 128.338 212.218 128.354C212.194 128.37 212.166 128.385 212.134 128.4L212.076 128.337C212.103 128.329 212.132 128.319 212.157 128.303C212.184 128.288 212.208 128.272 212.233 128.249C212.271 128.21 212.297 128.172 212.302 128.137C212.309 128.099 212.297 128.066 212.268 128.037C212.241 128.006 212.209 127.995 212.173 127.998C212.141 128.002 212.104 128.019 212.07 128.052L212.012 128.106L211.964 128.051L212.022 127.997C212.054 127.967 212.073 127.936 212.077 127.908C212.082 127.88 212.072 127.852 212.051 127.828C212.027 127.803 211.999 127.794 211.97 127.797C211.938 127.801 211.909 127.818 211.876 127.849C211.859 127.865 211.84 127.885 211.822 127.909C211.809 127.932 211.79 127.959 211.775 127.991L211.718 127.932C211.739 127.902 211.755 127.874 211.773 127.85C211.793 127.828 211.809 127.807 211.831 127.789C211.881 127.742 211.93 127.717 211.979 127.711C212.027 127.705 212.071 127.722 212.108 127.763C212.132 127.788 212.146 127.815 212.148 127.85C212.152 127.883 212.142 127.915 212.122 127.949V127.949ZM212.772 127.216L212.745 127.633L212.944 127.524L212.772 127.216ZM212.716 127.157L212.815 127.104L213.022 127.482L213.104 127.438L213.138 127.503L213.056 127.547L213.132 127.686L213.054 127.728L212.978 127.59L212.716 127.734L212.677 127.658L212.716 127.157ZM213.469 126.844L213.81 126.76L213.828 126.835L213.568 126.897L213.605 127.056C213.618 127.048 213.628 127.042 213.643 127.036C213.654 127.031 213.667 127.027 213.678 127.022C213.751 127.007 213.813 127.012 213.864 127.042C213.915 127.071 213.949 127.118 213.964 127.183C213.981 127.254 213.973 127.314 213.94 127.363C213.905 127.411 213.851 127.445 213.772 127.463C213.745 127.471 213.717 127.473 213.689 127.476L213.596 127.479L213.575 127.391C213.605 127.397 213.633 127.402 213.662 127.404C213.691 127.401 213.722 127.4 213.753 127.392C213.802 127.378 213.838 127.357 213.86 127.324C213.884 127.289 213.888 127.25 213.879 127.206C213.867 127.161 213.844 127.129 213.808 127.112C213.774 127.092 213.732 127.087 213.682 127.1C213.66 127.106 213.636 127.115 213.614 127.126C213.593 127.136 213.57 127.149 213.549 127.167L213.469 126.844V126.844ZM214.688 126.982C214.646 126.981 214.616 126.994 214.592 127.022C214.566 127.049 214.556 127.085 214.555 127.133C214.553 127.182 214.563 127.218 214.588 127.247C214.61 127.275 214.64 127.289 214.681 127.29C214.722 127.291 214.752 127.278 214.779 127.251C214.803 127.223 214.812 127.187 214.817 127.14C214.818 127.092 214.805 127.054 214.784 127.026C214.759 126.997 214.729 126.983 214.688 126.982V126.982ZM214.873 126.706L214.871 126.789C214.849 126.776 214.827 126.767 214.804 126.761C214.781 126.755 214.756 126.752 214.734 126.751C214.676 126.752 214.631 126.771 214.598 126.809C214.568 126.849 214.548 126.909 214.54 126.988C214.559 126.961 214.581 126.944 214.608 126.929C214.634 126.917 214.664 126.912 214.695 126.911C214.762 126.912 214.814 126.934 214.852 126.975C214.889 127.015 214.906 127.071 214.906 127.143C214.902 127.209 214.883 127.262 214.841 127.302C214.801 127.344 214.746 127.361 214.681 127.362C214.603 127.359 214.545 127.329 214.507 127.269C214.469 127.209 214.449 127.126 214.453 127.014C214.453 126.908 214.482 126.826 214.533 126.764C214.582 126.705 214.649 126.675 214.735 126.676C214.757 126.677 214.779 126.679 214.803 126.684C214.823 126.689 214.849 126.696 214.873 126.706V126.706ZM215.506 126.787L215.916 126.906L215.906 126.942L215.5 127.474L215.411 127.445L215.793 126.949L215.487 126.86L215.506 126.787ZM216.479 127.561C216.446 127.539 216.408 127.532 216.379 127.537C216.344 127.544 216.317 127.566 216.297 127.6C216.277 127.634 216.271 127.665 216.279 127.696C216.289 127.732 216.312 127.757 216.348 127.781C216.385 127.803 216.418 127.811 216.45 127.802C216.484 127.796 216.51 127.777 216.53 127.742C216.554 127.707 216.557 127.675 216.549 127.643C216.541 127.612 216.516 127.582 216.479 127.561V127.561ZM216.425 127.484C216.397 127.453 216.38 127.424 216.376 127.391C216.37 127.354 216.377 127.324 216.399 127.291C216.426 127.246 216.462 127.221 216.51 127.211C216.559 127.205 216.611 127.22 216.666 127.256C216.723 127.289 216.761 127.329 216.776 127.376C216.792 127.419 216.785 127.465 216.759 127.51C216.739 127.544 216.713 127.563 216.68 127.575C216.65 127.588 216.616 127.587 216.577 127.576C216.609 127.606 216.627 127.639 216.632 127.676C216.638 127.713 216.631 127.751 216.609 127.788C216.574 127.844 216.534 127.874 216.481 127.885C216.428 127.892 216.371 127.879 216.31 127.84C216.248 127.803 216.209 127.758 216.193 127.707C216.178 127.661 216.186 127.608 216.222 127.553C216.243 127.516 216.272 127.491 216.305 127.48C216.343 127.468 216.381 127.467 216.425 127.484V127.484ZM216.471 127.344C216.45 127.374 216.446 127.402 216.456 127.43C216.463 127.457 216.484 127.48 216.518 127.5C216.55 127.523 216.581 127.529 216.608 127.522C216.638 127.516 216.662 127.5 216.679 127.472C216.695 127.443 216.701 127.412 216.694 127.386C216.684 127.357 216.663 127.334 216.629 127.314C216.598 127.296 216.564 127.288 216.539 127.292C216.509 127.298 216.488 127.316 216.471 127.344ZM216.871 128.224L216.93 128.167C216.937 128.194 216.948 128.215 216.96 128.233C216.97 128.255 216.982 128.273 216.999 128.29C217.039 128.333 217.085 128.351 217.134 128.346C217.186 128.341 217.241 128.312 217.301 128.26C217.271 128.265 217.244 128.261 217.215 128.252C217.189 128.244 217.165 128.227 217.14 128.205C217.095 128.156 217.072 128.105 217.074 128.049C217.079 127.995 217.105 127.942 217.155 127.895C217.202 127.846 217.257 127.824 217.314 127.823C217.37 127.825 217.425 127.849 217.469 127.897C217.523 127.955 217.541 128.015 217.527 128.086C217.514 128.155 217.464 128.228 217.385 128.305C217.309 128.378 217.23 128.416 217.153 128.425C217.073 128.432 217.005 128.404 216.949 128.345C216.932 128.328 216.92 128.309 216.905 128.289C216.893 128.271 216.879 128.248 216.871 128.224V128.224ZM217.195 128.161C217.225 128.189 217.255 128.203 217.29 128.2C217.326 128.198 217.362 128.181 217.396 128.148C217.431 128.115 217.45 128.08 217.453 128.044C217.458 128.009 217.446 127.976 217.417 127.947C217.39 127.916 217.358 127.905 217.322 127.908C217.287 127.91 217.251 127.927 217.216 127.96C217.183 127.991 217.164 128.025 217.159 128.06C217.155 128.099 217.168 128.13 217.195 128.161ZM217.484 128.878L217.554 129.005L217.994 128.762L217.891 128.638L217.963 128.6L218.067 128.721L218.108 128.802L217.596 129.083L217.667 129.211L217.6 129.248L217.417 128.915L217.484 128.878ZM218.305 129.401C218.288 129.357 218.257 129.332 218.205 129.324C218.157 129.316 218.088 129.329 218.004 129.356C217.916 129.385 217.855 129.418 217.821 129.456C217.785 129.492 217.774 129.531 217.791 129.575C217.806 129.621 217.838 129.644 217.886 129.653C217.939 129.66 218.006 129.65 218.091 129.619C218.177 129.589 218.238 129.556 218.274 129.52C218.31 129.484 218.318 129.443 218.305 129.401ZM218.371 129.378C218.396 129.446 218.387 129.509 218.342 129.567C218.299 129.621 218.227 129.667 218.122 129.705C218.015 129.738 217.929 129.749 217.859 129.732C217.791 129.712 217.748 129.668 217.723 129.6C217.699 129.53 217.709 129.467 217.749 129.41C217.794 129.353 217.869 129.309 217.974 129.271C218.078 129.236 218.167 129.226 218.232 129.245C218.301 129.262 218.347 129.308 218.371 129.378" fill="black"/>
<path d="M216.979 129.908C216.566 128.565 215.179 127.832 213.832 128.247C212.485 128.661 211.754 130.041 212.169 131.388C212.584 132.735 213.97 133.473 215.313 133.059C216.656 132.646 217.393 131.25 216.979 129.908Z" stroke="white" stroke-width="0.141635" stroke-linecap="round"/>
<path d="M215.152 131.282L214.369 128.736L213.891 128.883L214.675 131.429L215.152 131.282Z" fill="white"/>
<path d="M206.327 152.435C205.923 153.135 206.158 154.015 206.856 154.418L207.778 154.95L209.187 155.764L214.499 158.83L223.996 142.38L218.684 139.314L217.275 138.5L216.353 137.968C215.656 137.565 214.774 137.804 214.371 138.501L213.765 139.552L215.689 140.663C215.769 140.709 215.795 140.807 215.751 140.884C215.707 140.961 215.606 140.99 215.527 140.944L213.602 139.833L212.47 141.795L214.329 142.868C214.406 142.912 214.435 143.005 214.389 143.085C214.345 143.162 214.246 143.188 214.169 143.144L212.311 142.071L211.096 144.174L212.955 145.247C213.032 145.292 213.058 145.391 213.012 145.47C212.968 145.547 212.872 145.568 212.795 145.524L210.937 144.45L209.722 146.554L211.581 147.627C211.658 147.671 211.684 147.77 211.638 147.85C211.594 147.927 211.498 147.948 211.422 147.903L209.563 146.83L208.266 149.076L210.125 150.149C210.202 150.193 210.228 150.292 210.184 150.369C210.139 150.446 210.042 150.47 209.966 150.425L208.107 149.352L206.935 151.382L208.794 152.455C208.871 152.499 208.897 152.598 208.853 152.675C208.807 152.754 208.708 152.781 208.631 152.736L206.772 151.663L206.327 152.435V152.435Z" fill="#A6A6A6"/>
<path d="M55.6777 64.8003L211.903 154.439" stroke="#7F7E7D" stroke-width="0.226616"/>
<path d="M51.188 59.9695L213.206 152.019" stroke="#808080" stroke-width="0.226616"/>
<path d="M46.4424 55.2715L214.801 149.577" stroke="#808080" stroke-width="0.226616"/>
<path d="M215.994 147.188L41.626 49.8752" stroke="#808080" stroke-width="0.226616"/>
<path d="M36.5415 45.2585L217.3 144.769" stroke="#808080" stroke-width="0.226616"/>
<path d="M31.8262 39.7388L218.661 142.568" stroke="#808080" stroke-width="0.226616"/>
<path d="M220.267 124.504C219.427 125.958 219.925 127.798 221.379 128.638C222.837 129.479 224.67 128.985 225.51 127.531C226.351 126.073 225.863 124.231 224.408 123.392C222.954 122.552 221.108 123.046 220.267 124.504Z" fill="black"/>
<path d="M219.609 125.229L219.649 125.088L219.165 124.946L219.151 125.108L219.075 125.083L219.087 124.923L219.114 124.837L219.674 125.004L219.716 124.866L219.789 124.885L219.68 125.251L219.609 125.229ZM219.956 124.351L220.118 124.084L220.182 124.125L219.965 124.481L219.899 124.444C219.889 124.396 219.872 124.333 219.852 124.249C219.833 124.17 219.819 124.116 219.811 124.097C219.8 124.056 219.787 124.026 219.774 124.003C219.761 123.98 219.747 123.965 219.727 123.953C219.696 123.935 219.668 123.93 219.635 123.942C219.604 123.95 219.576 123.972 219.556 124.006C219.543 124.029 219.531 124.056 219.523 124.09C219.514 124.119 219.51 124.158 219.506 124.198L219.431 124.15C219.438 124.113 219.447 124.076 219.456 124.047C219.467 124.016 219.477 123.991 219.491 123.968C219.525 123.909 219.57 123.87 219.621 123.854C219.672 123.838 219.722 123.844 219.769 123.875C219.791 123.888 219.811 123.907 219.829 123.928C219.844 123.948 219.857 123.979 219.87 124.021C219.875 124.031 219.884 124.063 219.897 124.119C219.911 124.173 219.932 124.25 219.956 124.351V124.351ZM220.436 123.311C220.472 123.287 220.508 123.277 220.546 123.284C220.586 123.288 220.617 123.306 220.646 123.334C220.69 123.382 220.709 123.435 220.703 123.492C220.694 123.547 220.661 123.604 220.602 123.661C220.58 123.679 220.558 123.697 220.532 123.716C220.507 123.732 220.48 123.747 220.45 123.759L220.39 123.698C220.417 123.691 220.446 123.681 220.47 123.665C220.498 123.65 220.524 123.631 220.547 123.611C220.589 123.571 220.611 123.534 220.617 123.496C220.622 123.461 220.611 123.428 220.584 123.396C220.554 123.368 220.524 123.355 220.492 123.359C220.456 123.361 220.42 123.378 220.384 123.414L220.328 123.465L220.278 123.413L220.337 123.357C220.37 123.326 220.386 123.298 220.391 123.27C220.397 123.239 220.385 123.214 220.365 123.19C220.341 123.165 220.314 123.153 220.284 123.159C220.256 123.162 220.224 123.178 220.191 123.208C220.173 123.227 220.155 123.244 220.141 123.27C220.123 123.294 220.105 123.318 220.09 123.351L220.036 123.293C220.053 123.264 220.069 123.236 220.089 123.214C220.107 123.19 220.128 123.167 220.145 123.151C220.195 123.104 220.245 123.076 220.292 123.073C220.344 123.068 220.384 123.084 220.423 123.122C220.447 123.147 220.463 123.179 220.464 123.21C220.468 123.242 220.455 123.277 220.436 123.311V123.311ZM221.088 122.576L221.06 122.992L221.258 122.886L221.088 122.576ZM221.032 122.521L221.128 122.466L221.335 122.844L221.419 122.797L221.454 122.863L221.374 122.908L221.447 123.045L221.369 123.087L221.292 122.952L221.032 123.093L220.992 123.017L221.032 122.521ZM221.785 122.204L222.125 122.119L222.143 122.194L221.881 122.259L221.921 122.415C221.933 122.407 221.944 122.402 221.957 122.398C221.968 122.393 221.981 122.389 221.995 122.386C222.066 122.366 222.128 122.371 222.179 122.401C222.23 122.431 222.263 122.48 222.281 122.547C222.296 122.613 222.288 122.673 222.256 122.722C222.22 122.77 222.165 122.807 222.086 122.825C222.061 122.83 222.031 122.835 222.003 122.838C221.975 122.841 221.944 122.842 221.911 122.839L221.89 122.75C221.919 122.759 221.948 122.761 221.978 122.763C222.007 122.765 222.037 122.759 222.068 122.751C222.116 122.74 222.153 122.716 222.176 122.684C222.198 122.651 222.205 122.613 222.193 122.568C222.181 122.523 222.158 122.491 222.123 122.471C222.089 122.452 222.045 122.449 221.996 122.462C221.973 122.468 221.951 122.474 221.93 122.485C221.907 122.498 221.884 122.511 221.864 122.526L221.785 122.204V122.204ZM223.003 122.342C222.965 122.342 222.932 122.353 222.908 122.381C222.884 122.409 222.87 122.447 222.87 122.493C222.869 122.541 222.878 122.577 222.903 122.606C222.925 122.634 222.958 122.65 222.996 122.649C223.036 122.653 223.068 122.637 223.093 122.613C223.116 122.585 223.131 122.548 223.132 122.499C223.132 122.454 223.121 122.413 223.099 122.386C223.074 122.356 223.044 122.343 223.003 122.342V122.342ZM223.187 122.068L223.187 122.148C223.162 122.138 223.141 122.129 223.118 122.123C223.095 122.117 223.074 122.113 223.052 122.112C222.992 122.111 222.946 122.13 222.913 122.168C222.883 122.208 222.863 122.268 222.855 122.347C222.873 122.323 222.896 122.303 222.922 122.291C222.949 122.276 222.979 122.271 223.009 122.273C223.076 122.274 223.128 122.296 223.165 122.337C223.203 122.377 223.223 122.434 223.222 122.502C223.22 122.57 223.197 122.624 223.154 122.664C223.117 122.703 223.06 122.723 222.996 122.721C222.917 122.721 222.86 122.688 222.821 122.631C222.783 122.571 222.765 122.485 222.768 122.373C222.767 122.27 222.796 122.188 222.847 122.126C222.897 122.064 222.964 122.034 223.049 122.038C223.071 122.039 223.093 122.041 223.116 122.046C223.14 122.052 223.163 122.058 223.187 122.068V122.068ZM223.825 122.148L224.23 122.268L224.22 122.304L223.816 122.834L223.725 122.807L224.106 122.311L223.803 122.219L223.825 122.148ZM224.797 122.922C224.76 122.901 224.724 122.891 224.692 122.899C224.658 122.906 224.632 122.925 224.612 122.959C224.592 122.994 224.585 123.027 224.593 123.058C224.604 123.091 224.626 123.119 224.663 123.141C224.7 123.162 224.734 123.17 224.768 123.163C224.799 123.155 224.825 123.136 224.845 123.101C224.868 123.069 224.873 123.034 224.864 123.003C224.856 122.971 224.834 122.943 224.797 122.922ZM224.74 122.843C224.711 122.815 224.695 122.783 224.691 122.751C224.684 122.716 224.692 122.683 224.713 122.653C224.739 122.608 224.778 122.581 224.827 122.575C224.873 122.567 224.927 122.579 224.982 122.615C225.039 122.648 225.076 122.688 225.091 122.735C225.106 122.781 225.1 122.824 225.072 122.872C225.054 122.903 225.027 122.925 224.998 122.935C224.965 122.947 224.929 122.949 224.892 122.935C224.922 122.968 224.941 123.001 224.946 123.038C224.951 123.075 224.945 123.113 224.923 123.15C224.889 123.203 224.847 123.236 224.797 123.244C224.746 123.253 224.687 123.238 224.626 123.199C224.563 123.163 224.525 123.118 224.51 123.071C224.494 123.02 224.501 122.967 224.537 122.912C224.557 122.878 224.586 122.853 224.624 122.841C224.658 122.827 224.695 122.829 224.74 122.843V122.843ZM224.785 122.706C224.766 122.733 224.761 122.761 224.771 122.789C224.778 122.816 224.799 122.84 224.832 122.862C224.866 122.882 224.896 122.888 224.924 122.885C224.951 122.878 224.976 122.862 224.994 122.831C225.01 122.802 225.015 122.774 225.008 122.748C224.998 122.719 224.977 122.696 224.947 122.675C224.913 122.655 224.883 122.649 224.853 122.654C224.825 122.657 224.803 122.675 224.785 122.706ZM225.184 123.586L225.244 123.529C225.253 123.553 225.263 123.574 225.274 123.595C225.286 123.614 225.298 123.632 225.314 123.649C225.355 123.692 225.401 123.711 225.45 123.705C225.501 123.7 225.556 123.671 225.62 123.621C225.587 123.625 225.558 123.623 225.531 123.615C225.504 123.603 225.479 123.589 225.455 123.564C225.411 123.515 225.387 123.464 225.392 123.41C225.394 123.354 225.419 123.304 225.471 123.254C225.521 123.207 225.572 123.183 225.628 123.185C225.688 123.186 225.738 123.211 225.784 123.257C225.838 123.314 225.855 123.377 225.842 123.446C225.827 123.517 225.779 123.588 225.699 123.667C225.624 123.737 225.548 123.777 225.468 123.784C225.388 123.791 225.319 123.766 225.264 123.704C225.247 123.687 225.234 123.671 225.219 123.651C225.208 123.63 225.198 123.609 225.184 123.586V123.586ZM225.511 123.52C225.538 123.551 225.57 123.562 225.606 123.559C225.644 123.559 225.677 123.54 225.712 123.507C225.746 123.474 225.766 123.439 225.771 123.404C225.773 123.368 225.76 123.338 225.733 123.306C225.706 123.28 225.673 123.265 225.638 123.267C225.602 123.269 225.566 123.286 225.532 123.319C225.497 123.353 225.477 123.387 225.475 123.424C225.47 123.459 225.481 123.492 225.511 123.52ZM225.799 124.237L225.869 124.365L226.31 124.121L226.207 123.998L226.278 123.959L226.381 124.083L226.424 124.161L225.912 124.442L225.982 124.57L225.915 124.607L225.732 124.274L225.799 124.237ZM226.62 124.76C226.604 124.716 226.573 124.691 226.52 124.683C226.471 124.677 226.404 124.688 226.318 124.718C226.232 124.749 226.171 124.782 226.135 124.818C226.099 124.854 226.088 124.893 226.105 124.937C226.121 124.98 226.152 125.006 226.202 125.012C226.254 125.019 226.321 125.009 226.407 124.978C226.491 124.951 226.552 124.918 226.588 124.882C226.624 124.846 226.634 124.802 226.62 124.76V124.76ZM226.686 124.738C226.71 124.808 226.7 124.871 226.657 124.926C226.617 124.982 226.541 125.029 226.437 125.064C226.329 125.1 226.244 125.109 226.175 125.091C226.108 125.075 226.062 125.03 226.038 124.959C226.015 124.889 226.024 124.826 226.064 124.769C226.108 124.715 226.184 124.668 226.288 124.633C226.393 124.595 226.48 124.588 226.547 124.604C226.615 124.624 226.663 124.667 226.686 124.738" fill="black"/>
<path d="M225.388 126.416C225.604 125.028 224.677 123.762 223.284 123.546C221.891 123.33 220.631 124.251 220.415 125.644C220.199 127.037 221.123 128.306 222.511 128.522C223.9 128.738 225.173 127.805 225.388 126.416Z" stroke="white" stroke-width="0.141635" stroke-linecap="round"/>
<path d="M223.144 126.853L223.553 124.221L223.059 124.144L222.65 126.777L223.144 126.853Z" fill="white"/>
<path d="M228.807 120.697C227.967 122.151 228.462 123.989 229.919 124.831C231.377 125.672 233.21 125.178 234.05 123.724C234.891 122.266 234.403 120.424 232.948 119.585C231.494 118.745 229.648 119.239 228.807 120.697Z" fill="black"/>
<path d="M228.146 121.42L228.188 121.281L227.705 121.139L227.691 121.302L227.614 121.276L227.627 121.117L227.649 121.031L228.214 121.197L228.253 121.057L228.328 121.078L228.22 121.444L228.146 121.42V121.42ZM228.496 120.544L228.658 120.277L228.722 120.318L228.504 120.674L228.439 120.637C228.429 120.589 228.412 120.526 228.392 120.442C228.373 120.363 228.357 120.312 228.351 120.29C228.34 120.249 228.324 120.217 228.314 120.196C228.3 120.173 228.284 120.156 228.267 120.146C228.235 120.128 228.203 120.125 228.172 120.133C228.143 120.143 228.115 120.165 228.096 120.199C228.08 120.22 228.07 120.249 228.06 120.281C228.052 120.315 228.047 120.35 228.046 120.391L227.971 120.344C227.974 120.304 227.982 120.271 227.993 120.239C228.004 120.207 228.017 120.184 228.03 120.162C228.065 120.102 228.11 120.063 228.161 120.047C228.209 120.029 228.259 120.035 228.308 120.068C228.331 120.081 228.35 120.1 228.365 120.12C228.383 120.142 228.396 120.172 228.41 120.214C228.412 120.223 228.423 120.256 228.436 120.313C228.451 120.366 228.471 120.443 228.496 120.544V120.544ZM228.972 119.502C229.012 119.48 229.048 119.47 229.086 119.477C229.122 119.479 229.157 119.499 229.186 119.527C229.23 119.575 229.249 119.628 229.24 119.683C229.233 119.74 229.201 119.797 229.141 119.854C229.119 119.872 229.096 119.893 229.072 119.909C229.047 119.925 229.02 119.94 228.989 119.953L228.93 119.892C228.957 119.884 228.985 119.874 229.01 119.858C229.037 119.844 229.063 119.825 229.084 119.802C229.126 119.762 229.15 119.727 229.157 119.689C229.162 119.654 229.151 119.621 229.12 119.588C229.094 119.561 229.064 119.548 229.028 119.55C228.996 119.554 228.959 119.571 228.923 119.607L228.867 119.658L228.817 119.607L228.877 119.55C228.907 119.518 228.926 119.491 228.93 119.463C228.937 119.433 228.925 119.407 228.904 119.384C228.881 119.359 228.854 119.347 228.824 119.352C228.793 119.353 228.764 119.371 228.731 119.401C228.712 119.421 228.695 119.437 228.677 119.461C228.66 119.485 228.645 119.511 228.63 119.544L228.573 119.484C228.592 119.458 228.609 119.429 228.626 119.405C228.647 119.383 228.664 119.359 228.684 119.344C228.731 119.295 228.785 119.269 228.832 119.266C228.881 119.26 228.924 119.277 228.963 119.315C228.986 119.34 228.999 119.37 229.003 119.403C229.003 119.437 228.995 119.47 228.972 119.502V119.502ZM229.627 118.769L229.598 119.188L229.797 119.079L229.627 118.769ZM229.569 118.712L229.668 118.659L229.875 119.037L229.959 118.99L229.993 119.056L229.909 119.102L229.987 119.238L229.909 119.28L229.832 119.145L229.571 119.287L229.53 119.213L229.569 118.712ZM230.324 118.397L230.665 118.313L230.683 118.387L230.421 118.453L230.46 118.608C230.471 118.603 230.483 118.595 230.494 118.589C230.507 118.586 230.518 118.581 230.531 118.577C230.603 118.558 230.666 118.567 230.719 118.594C230.77 118.624 230.802 118.673 230.818 118.739C230.834 118.809 230.828 118.866 230.795 118.915C230.76 118.963 230.705 119 230.626 119.019C230.599 119.026 230.57 119.028 230.542 119.031C230.511 119.032 230.48 119.033 230.451 119.032L230.43 118.943C230.459 118.953 230.488 118.954 230.517 118.956C230.544 118.956 230.577 118.952 230.606 118.947C230.656 118.933 230.693 118.909 230.715 118.877C230.738 118.844 230.741 118.805 230.732 118.761C230.72 118.716 230.697 118.684 230.663 118.664C230.629 118.645 230.585 118.642 230.535 118.655C230.51 118.66 230.491 118.667 230.468 118.681C230.446 118.691 230.424 118.705 230.403 118.72L230.324 118.397V118.397ZM231.543 118.535C231.501 118.534 231.47 118.549 231.447 118.575C231.421 118.601 231.41 118.64 231.408 118.689C231.408 118.734 231.416 118.773 231.441 118.802C231.465 118.827 231.495 118.841 231.534 118.845C231.575 118.846 231.607 118.83 231.629 118.805C231.656 118.779 231.667 118.739 231.669 118.691C231.668 118.645 231.66 118.607 231.636 118.577C231.614 118.549 231.584 118.536 231.543 118.535ZM231.727 118.261L231.724 118.339C231.702 118.331 231.68 118.322 231.657 118.316C231.634 118.31 231.611 118.305 231.589 118.303C231.531 118.304 231.483 118.322 231.453 118.361C231.42 118.399 231.403 118.461 231.395 118.54C231.413 118.517 231.436 118.496 231.462 118.484C231.489 118.47 231.519 118.464 231.548 118.466C231.616 118.467 231.668 118.489 231.705 118.53C231.742 118.57 231.759 118.626 231.758 118.693C231.757 118.761 231.736 118.817 231.694 118.857C231.653 118.895 231.599 118.916 231.533 118.913C231.456 118.914 231.4 118.881 231.36 118.824C231.32 118.763 231.304 118.678 231.305 118.565C231.307 118.463 231.335 118.381 231.386 118.319C231.437 118.257 231.504 118.227 231.586 118.229C231.608 118.231 231.633 118.234 231.653 118.238C231.676 118.244 231.702 118.251 231.727 118.261V118.261ZM232.361 118.339L232.769 118.461L232.76 118.497L232.355 119.027L232.264 119.001L232.646 118.504L232.342 118.412L232.361 118.339ZM233.334 119.113C233.297 119.092 233.263 119.084 233.232 119.093C233.198 119.099 233.172 119.118 233.152 119.153C233.132 119.187 233.124 119.22 233.133 119.251C233.144 119.285 233.166 119.312 233.203 119.334C233.237 119.353 233.273 119.363 233.305 119.355C233.337 119.351 233.365 119.329 233.385 119.295C233.404 119.26 233.412 119.227 233.404 119.196C233.393 119.163 233.371 119.135 233.334 119.113ZM233.277 119.035C233.25 119.008 233.235 118.976 233.228 118.942C233.224 118.909 233.232 118.876 233.25 118.845C233.279 118.801 233.317 118.774 233.363 118.766C233.412 118.76 233.465 118.775 233.521 118.808C233.578 118.841 233.613 118.88 233.631 118.928C233.645 118.975 233.638 119.02 233.612 119.065C233.594 119.097 233.566 119.118 233.533 119.13C233.504 119.14 233.469 119.142 233.432 119.128C233.462 119.161 233.481 119.194 233.486 119.231C233.491 119.269 233.484 119.306 233.46 119.342C233.429 119.396 233.387 119.429 233.334 119.436C233.283 119.445 233.226 119.431 233.164 119.395C233.103 119.356 233.064 119.311 233.047 119.263C233.033 119.213 233.041 119.161 233.075 119.108C233.096 119.071 233.126 119.046 233.16 119.032C233.198 119.02 233.235 119.022 233.277 119.035V119.035ZM233.322 118.898C233.305 118.926 233.301 118.954 233.311 118.982C233.318 119.009 233.337 119.036 233.371 119.055C233.402 119.073 233.436 119.081 233.461 119.077C233.491 119.071 233.515 119.055 233.532 119.027C233.55 118.995 233.555 118.968 233.545 118.939C233.537 118.912 233.517 118.889 233.482 118.869C233.453 118.848 233.419 118.84 233.392 118.847C233.364 118.85 233.343 118.868 233.322 118.898V118.898ZM233.724 119.779L233.783 119.722C233.789 119.744 233.8 119.766 233.813 119.789C233.824 119.81 233.837 119.825 233.854 119.843C233.894 119.885 233.94 119.904 233.989 119.898C234.041 119.894 234.096 119.864 234.156 119.812C234.126 119.818 234.097 119.816 234.068 119.807C234.041 119.795 234.015 119.78 233.995 119.757C233.95 119.708 233.927 119.657 233.929 119.601C233.934 119.547 233.959 119.497 234.01 119.447C234.056 119.401 234.112 119.377 234.168 119.378C234.225 119.377 234.278 119.404 234.322 119.452C234.375 119.506 234.395 119.57 234.382 119.639C234.364 119.708 234.319 119.781 234.239 119.86C234.164 119.93 234.085 119.968 234.008 119.977C233.928 119.984 233.859 119.959 233.801 119.895C233.785 119.883 233.77 119.863 233.758 119.844C233.748 119.823 233.734 119.8 233.724 119.779V119.779ZM234.05 119.713C234.075 119.742 234.11 119.755 234.145 119.753C234.181 119.75 234.217 119.733 234.251 119.7C234.286 119.667 234.304 119.635 234.308 119.596C234.313 119.561 234.3 119.531 234.272 119.5C234.243 119.471 234.213 119.458 234.177 119.46C234.139 119.461 234.106 119.479 234.071 119.513C234.037 119.546 234.017 119.58 234.012 119.615C234.01 119.652 234.021 119.685 234.05 119.713ZM234.339 120.43L234.409 120.558L234.849 120.315L234.744 120.193L234.815 120.151L234.921 120.276L234.963 120.354L234.451 120.635L234.522 120.763L234.455 120.8L234.272 120.467L234.339 120.43V120.43ZM235.16 120.953C235.143 120.91 235.112 120.884 235.06 120.877C235.01 120.871 234.943 120.881 234.855 120.91C234.769 120.94 234.708 120.973 234.672 121.009C234.639 121.047 234.628 121.086 234.644 121.13C234.658 121.172 234.691 121.199 234.741 121.205C234.794 121.213 234.861 121.202 234.946 121.172C235.03 121.144 235.091 121.111 235.127 121.075C235.163 121.039 235.172 120.998 235.16 120.953V120.953ZM235.226 120.931C235.25 121.001 235.24 121.064 235.197 121.119C235.154 121.174 235.08 121.222 234.974 121.256C234.868 121.294 234.784 121.302 234.714 121.284C234.645 121.267 234.602 121.223 234.578 121.152C234.554 121.082 234.561 121.017 234.604 120.963C234.647 120.908 234.724 120.861 234.827 120.826C234.933 120.788 235.02 120.781 235.087 120.797C235.155 120.817 235.202 120.86 235.226 120.931" fill="black"/>
<path d="M233.417 123.748C234.28 122.64 234.086 121.084 232.974 120.217C231.862 119.351 230.313 119.543 229.447 120.654C228.58 121.766 228.77 123.325 229.879 124.189C230.987 125.052 232.553 124.857 233.417 123.748Z" stroke="white" stroke-width="0.141634" stroke-linecap="round"/>
<path d="M231.243 123.039L232.881 120.938L232.487 120.631L230.849 122.732L231.243 123.039Z" fill="white"/>
<path d="M55.1008 62.7369C56.086 63.3057 56.4216 64.5645 55.854 65.5477C55.2863 66.531 54.0284 66.8697 53.0432 66.3009C52.06 65.7332 51.7243 64.4744 52.292 63.4912C52.8597 62.508 54.1176 62.1693 55.1008 62.7369Z" fill="#8C8C8C"/>
<path d="M50.342 58.0885C51.3272 58.6573 51.6629 59.9161 51.0952 60.8993C50.5275 61.8825 49.2696 62.2212 48.2844 61.6524C47.3012 61.0848 46.9656 59.826 47.5332 58.8428C48.1009 57.8596 49.3588 57.5208 50.342 58.0885Z" fill="#8C8C8C"/>
<path d="M45.5686 52.6407C46.5538 53.2095 46.8894 54.4683 46.3218 55.4515C45.7541 56.4348 44.4961 56.7735 43.511 56.2047C42.5277 55.637 42.1921 54.3783 42.7598 53.395C43.3274 52.4118 44.5854 52.0731 45.5686 52.6407Z" fill="#8C8C8C"/>
<path d="M40.6218 48.0426C41.607 48.6114 41.9426 49.8702 41.375 50.8534C40.8073 51.8366 39.5494 52.1753 38.5642 51.6065C37.581 51.0389 37.2453 49.7801 37.813 48.7969C38.3807 47.8137 39.6386 47.4749 40.6218 48.0426Z" fill="#8C8C8C"/>
<path d="M35.6936 43.1388C36.6788 43.7076 37.0144 44.9664 36.4468 45.9496C35.8791 46.9328 34.6211 47.2715 33.636 46.7027C32.6527 46.1351 32.3171 44.8763 32.8848 43.8931C33.4524 42.9099 34.7104 42.5711 35.6936 43.1388Z" fill="#8C8C8C"/>
<path d="M30.9011 37.9962C31.8863 38.565 32.2219 39.8238 31.6543 40.807C31.0866 41.7902 29.8287 42.129 28.8435 41.5602C27.8603 40.9925 27.5246 39.7337 28.0923 38.7505C28.66 37.7673 29.9179 37.4286 30.9011 37.9962Z" fill="#8C8C8C"/>
<path d="M54.7399 52.3941C55.5269 52.8484 55.7965 53.8545 55.3421 54.6415C54.8878 55.4284 53.8817 55.698 53.0947 55.2437C52.3058 54.7882 52.0362 53.7821 52.4906 52.9951C52.9449 52.2082 53.951 51.9386 54.7399 52.3941Z" fill="#8C8C8C"/>
<path d="M52.6531 63.7031C52.3491 64.2297 52.3809 64.8516 52.6727 65.3388C52.6034 64.9724 52.652 64.5792 52.8542 64.2291C53.2995 63.4577 54.2873 63.193 55.0616 63.64C55.3063 63.7814 55.4975 63.9828 55.631 64.2117C55.5474 63.7649 55.2817 63.3573 54.8605 63.114C54.0862 62.667 53.0984 62.9317 52.6531 63.7031V63.7031Z" fill="white"/>
<path d="M47.8269 58.9199C47.5229 59.4465 47.5576 60.07 47.8494 60.5573C47.7772 60.1892 47.8259 59.796 48.028 59.4459C48.4734 58.6745 49.464 58.4115 50.2354 58.8568C50.4802 58.9982 50.6713 59.1996 50.8048 59.4285C50.7212 58.9817 50.4584 58.5757 50.0343 58.3308C49.2629 57.8855 48.2723 58.1485 47.8269 58.9199V58.9199Z" fill="white"/>
<path d="M43.0833 53.5024C42.7792 54.029 42.814 54.6525 43.1057 55.1398C43.0336 54.7717 43.0822 54.3785 43.2843 54.0284C43.7297 53.257 44.7203 52.994 45.4917 53.4394C45.7394 53.5823 45.9276 53.7821 46.0656 54.0098C45.9775 53.5642 45.7164 53.1554 45.2923 52.9105C44.5209 52.4652 43.5286 52.731 43.0833 53.5024V53.5024Z" fill="white"/>
<path d="M38.1804 48.9604C37.8764 49.487 37.9083 50.1089 38.2001 50.5961C38.1307 50.2297 38.1794 49.8365 38.3815 49.4864C38.8269 48.715 39.8147 48.4503 40.586 48.8957C40.8337 49.0387 41.022 49.2385 41.16 49.4662C41.0747 49.0222 40.8107 48.6117 40.3866 48.3669C39.6152 47.9215 38.6258 48.189 38.1804 48.9604V48.9604Z" fill="white"/>
<path d="M33.1658 44.0117C32.8617 44.5383 32.8936 45.1601 33.1854 45.6474C33.1161 45.281 33.1647 44.8878 33.3669 44.5377C33.8122 43.7663 34.8 43.5016 35.5742 43.9486C35.819 44.09 36.0073 44.2897 36.1453 44.5174C36.0601 44.0735 35.7961 43.663 35.372 43.4181C34.6006 42.9728 33.6111 43.2403 33.1658 44.0117V44.0117Z" fill="white"/>
<path d="M28.3845 38.8567C28.0805 39.3833 28.1152 40.0068 28.407 40.494C28.3348 40.126 28.3835 39.7328 28.5856 39.3827C29.031 38.6113 30.0188 38.3466 30.793 38.7936C31.0378 38.9349 31.2289 39.1364 31.3641 39.3624C31.2788 38.9185 31.0148 38.508 30.5935 38.2648C29.8193 37.8178 28.8299 38.0853 28.3845 38.8567V38.8567Z" fill="white"/>
<path d="M52.7837 53.2016C52.5421 53.62 52.5684 54.1134 52.7987 54.4968C52.7425 54.2063 52.7818 53.895 52.9412 53.6189C53.2946 53.0069 54.0786 52.7992 54.6878 53.1509C54.8842 53.2643 55.0306 53.4248 55.1391 53.605C55.0734 53.2521 54.8616 52.9287 54.5286 52.7364C53.9166 52.3831 53.1354 52.5924 52.7837 53.2016Z" fill="white"/>
<path d="M62.3883 63.05C62.2322 63.3205 62.3284 63.6796 62.586 63.9764C62.5557 63.8184 62.5576 63.6639 62.6349 63.5302C62.8551 63.1487 63.4664 63.0956 64.0073 63.4079L66.3954 64.7867C66.5491 64.8754 66.6734 64.9889 66.778 65.11C66.7178 64.8134 66.5051 64.5046 66.1522 64.3009L63.764 62.922C63.2232 62.6098 62.6085 62.6686 62.3883 63.05V63.05Z" fill="white"/>
<path d="M62.9415 62.5988C63.0592 62.6668 62.9945 62.9998 62.7974 63.3413C62.5989 63.685 62.3429 63.9075 62.2251 63.8395C62.1074 63.7715 62.1721 63.4386 62.3705 63.0948C62.5677 62.7533 62.8237 62.5308 62.9415 62.5988Z" fill="black"/>
<path d="M47.51 69.3041C46.9231 68.5326 45.3974 67.4809 44.8985 66.616C44.743 66.2871 45.2155 65.7515 45.9305 65.2231C45.7097 65.6383 45.5167 65.7622 45.1633 66.2034C44.9493 66.4821 45.2264 66.7712 45.8392 67.5044C46.46 68.25 47.6982 68.9649 47.51 69.3041V69.3041Z" fill="white"/>
<path d="M42.464 64.3249C41.8742 63.5517 41.0678 62.8318 40.569 61.9669C40.4118 61.6409 40.8859 61.1024 41.5993 60.5769C41.3785 60.9921 41.1855 61.116 40.8321 61.5572C40.6181 61.8359 40.8952 62.125 41.508 62.8583C42.1288 63.6038 42.6506 63.9885 42.464 64.3249V64.3249Z" fill="white"/>
<path d="M37.5641 59.5192C36.9772 58.7477 36.1679 58.0262 35.6691 57.1613C35.5136 56.8324 35.9877 56.2939 36.701 55.7683C36.4802 56.1836 36.2872 56.3075 35.9339 56.7487C35.7198 57.0274 35.997 57.3164 36.6097 58.0497C37.2305 58.7953 37.7523 59.18 37.5641 59.5192V59.5192Z" fill="white"/>
<path d="M32.3333 54.4343C31.7436 53.6611 30.9343 52.9396 30.4383 52.0763C30.28 51.7458 30.7524 51.2102 31.4674 50.6818C31.2495 51.0987 31.052 51.2238 30.6986 51.6649C30.489 51.9424 30.7662 52.2315 31.3773 52.9676C31.9982 53.7132 32.5171 54.0963 32.3333 54.4343Z" fill="white"/>
<path d="M27.8342 49.3625C27.2445 48.5894 26.4352 47.8679 25.9392 47.0046C25.7837 46.6757 26.2562 46.1401 26.9683 45.61C26.7504 46.0269 26.5558 46.1537 26.204 46.592C25.99 46.8707 26.2671 47.1598 26.8782 47.8959C27.5007 48.6386 28.0225 49.0234 27.8342 49.3625V49.3625Z" fill="white"/>
<path d="M23.2749 44.2559C22.6852 43.4828 21.8759 42.7613 21.3787 41.8935C21.2216 41.5675 21.6957 41.029 22.409 40.5034C22.1911 40.9203 21.9953 41.0426 21.6419 41.4838C21.4278 41.7625 21.705 42.0515 22.3206 42.7865C22.9414 43.532 23.4603 43.9151 23.2749 44.2559Z" fill="white"/>
<path d="M206.446 152.526C206.22 152.916 206.249 153.365 206.453 153.729C206.45 153.511 206.48 153.293 206.597 153.091L206.977 152.434L208.554 153.344C208.622 153.384 208.705 153.359 208.742 153.294C208.78 153.228 208.76 153.145 208.692 153.105L207.115 152.195L207.184 152.075L206.825 151.868L206.446 152.526Z" fill="white"/>
<path d="M207.19 151.237L207.549 151.444L208.336 150.08L209.913 150.991C209.981 151.03 210.06 151.011 210.098 150.946C210.137 150.877 210.117 150.794 210.049 150.754L208.472 149.844L208.543 149.722L208.184 149.514L207.19 151.237Z" fill="white"/>
<path d="M208.516 148.938L208.875 149.146L209.767 147.6L211.344 148.51C211.412 148.55 211.492 148.531 211.529 148.466C211.567 148.4 211.547 148.316 211.479 148.277L209.902 147.366L209.974 147.241L209.616 147.034L208.516 148.938Z" fill="white"/>
<path d="M209.946 146.463L210.305 146.67L211.128 145.244L212.705 146.154C212.774 146.194 212.853 146.175 212.891 146.109C212.93 146.041 212.91 145.957 212.842 145.918L211.265 145.007L211.335 144.885L210.977 144.678L209.946 146.463Z" fill="white"/>
<path d="M211.339 144.049L211.698 144.256L212.521 142.83L214.098 143.74C214.167 143.779 214.249 143.755 214.287 143.689C214.325 143.624 214.301 143.546 214.233 143.507L212.656 142.596L212.728 142.471L212.37 142.264L211.339 144.049Z" fill="white"/>
<path d="M212.662 141.757L213.021 141.964L213.775 140.658L215.409 141.601C215.477 141.641 215.563 141.618 215.6 141.552C215.64 141.484 215.617 141.399 215.549 141.359L213.915 140.416L213.984 140.296L213.625 140.089L212.662 141.757Z" fill="white"/>
<path d="M213.926 139.569L214.284 139.776L214.592 139.244C214.934 138.652 215.683 138.451 216.275 138.792L217.055 139.243L218.254 139.935L222.611 141.972L218.102 139.369L216.904 138.677L216.124 138.227C215.532 137.885 214.782 138.086 214.44 138.678L213.926 139.569Z" fill="white"/>
<path d="M212.92 155.351C213.172 155.496 213.257 155.818 213.112 156.07C212.966 156.322 212.645 156.408 212.393 156.262C212.141 156.117 212.054 155.796 212.2 155.543C212.345 155.291 212.668 155.205 212.92 155.351Z" fill="#787878"/>
<path d="M213.631 154.115C213.883 154.261 213.969 154.583 213.823 154.835C213.677 155.087 213.357 155.173 213.105 155.027C212.853 154.882 212.766 154.56 212.911 154.308C213.057 154.056 213.379 153.97 213.631 154.115Z" fill="#787878"/>
<path d="M214.312 152.936C214.564 153.082 214.65 153.403 214.504 153.655C214.359 153.908 214.038 153.993 213.786 153.848C213.534 153.702 213.447 153.381 213.592 153.129C213.738 152.877 214.06 152.791 214.312 152.936Z" fill="#787878"/>
<path d="M214.994 151.754C215.247 151.9 215.332 152.222 215.186 152.474C215.041 152.726 214.72 152.812 214.468 152.666C214.216 152.521 214.129 152.199 214.275 151.947C214.42 151.695 214.742 151.609 214.994 151.754Z" fill="#787878"/>
<path d="M215.707 150.52C215.959 150.666 216.044 150.987 215.899 151.239C215.753 151.492 215.433 151.577 215.18 151.432C214.928 151.286 214.841 150.965 214.987 150.713C215.133 150.461 215.455 150.375 215.707 150.52Z" fill="#787878"/>
<path d="M216.42 149.286C216.672 149.431 216.757 149.753 216.612 150.005C216.466 150.257 216.145 150.343 215.893 150.198C215.641 150.052 215.554 149.731 215.7 149.479C215.845 149.227 216.168 149.14 216.42 149.286Z" fill="#787878"/>
<path d="M217.044 148.204C217.296 148.35 217.381 148.671 217.236 148.924C217.09 149.176 216.769 149.262 216.517 149.116C216.265 148.97 216.178 148.649 216.324 148.397C216.469 148.145 216.792 148.059 217.044 148.204Z" fill="#787878"/>
<path d="M217.757 146.97C218.009 147.115 218.094 147.437 217.949 147.689C217.803 147.941 217.482 148.027 217.23 147.882C216.978 147.736 216.891 147.415 217.037 147.163C217.182 146.911 217.505 146.824 217.757 146.97Z" fill="#787878"/>
<path d="M218.438 145.79C218.69 145.936 218.775 146.257 218.63 146.509C218.484 146.762 218.164 146.847 217.911 146.702C217.659 146.556 217.572 146.235 217.718 145.983C217.864 145.731 218.186 145.645 218.438 145.79Z" fill="#787878"/>
<path d="M219.119 144.609C219.371 144.755 219.456 145.076 219.311 145.329C219.165 145.581 218.845 145.667 218.593 145.521C218.34 145.375 218.254 145.054 218.399 144.802C218.545 144.55 218.867 144.464 219.119 144.609Z" fill="#787878"/>
<path d="M219.832 143.376C220.084 143.521 220.17 143.843 220.024 144.095C219.879 144.347 219.558 144.433 219.306 144.287C219.054 144.142 218.967 143.821 219.113 143.569C219.258 143.316 219.58 143.23 219.832 143.376Z" fill="#787878"/>
<path d="M220.544 142.142C220.796 142.287 220.882 142.609 220.736 142.861C220.591 143.113 220.27 143.199 220.018 143.053C219.766 142.908 219.679 142.587 219.824 142.334C219.97 142.082 220.292 141.996 220.544 142.142Z" fill="#787878"/>
</g>
<defs>
<linearGradient id="paint0_linear" x1="146.477" y1="108.029" x2="240.52" y2="162.325" gradientUnits="userSpaceOnUse">
<stop/>
<stop offset="1" stop-color="#DA5003" stop-opacity="0.56"/>
</linearGradient>
<clipPath id="clip0">
<rect width="81.2631" height="254.268" fill="white" transform="translate(0 70.376) rotate(-60)"/>
</clipPath>
</defs>
</svg>
